# xmcd
#
# Track frame offsets: 
#        150
#        18857
#        35460
#        54297
#
# Disc length: 941 seconds
#
# Revision: 4
# Processed by: cddbd v1.5.2PL0 Copyright (c) Steve Scherf et al.
# Submitted via: ExactAudioCopy v0.95a4
#
DISCID=2303ab04
DTITLE=TMG - Oh Japan ~Our Time Is Now~
DYEAR=2004
DGENRE=Rock
TTITLE0=Oh Japan ~Our Time Is Now~
TTITLE1=Trapped
TTITLE2=Oh Japan ~Our Time Is Now~ (Karaoke)
TTITLE3=Trapped (Karaoke)
EXTD=YEAR: 1996
EXTT0=
EXTT1=
EXTT2=
EXTT3=
PLAYORDER=
